<svg xmlns="http://www.w3.org/2000/svg" width="51.604" height="50" viewBox="0 0 51.604 50">
  <g id="Groupe_1376" data-name="Groupe 1376" transform="translate(-396 -7022.307)">
    <path id="Tracé_177" data-name="Tracé 177" d="M22.347,48.847a8.58,8.58,0,0,1-8.568-8.573V11.724H4.626V40.1a17.915,17.915,0,0,0,17.9,17.895H34.6A17.916,17.916,0,0,0,52.5,40.1V11.724h-9.33V40.275A8.579,8.579,0,0,1,34.6,48.847" transform="translate(393.24 7012.449)" fill="#1a1a1a"/>
    <path id="Tracé_221" data-name="Tracé 221" d="M31.841,57.1H19.763A19.784,19.784,0,0,1,0,37.337V8.03A.932.932,0,0,1,.933,7.1H11.951a.933.933,0,0,1,.933.932V37.514a6.712,6.712,0,0,0,6.7,6.707H31.841a6.712,6.712,0,0,0,6.7-6.707V8.03a.932.932,0,0,1,.932-.932h11.2a.932.932,0,0,1,.933.932V37.337A19.784,19.784,0,0,1,31.841,57.1M19.587,46.087a8.58,8.58,0,0,1-8.568-8.573V8.963H1.866V37.337a17.915,17.915,0,0,0,17.9,17.895H31.841a17.916,17.916,0,0,0,17.9-17.895V8.963H40.408V37.514a8.579,8.579,0,0,1-8.567,8.573" transform="translate(396 7015.209)" fill="#1a1a1a"/>
    <path id="Tracé_222" data-name="Tracé 222" d="M54.409,36.725v8.088H50.781a17.864,17.864,0,1,1,0-35.728L54.4,9.081l-.006,8.04H50.756a9.829,9.829,0,1,0,0,19.659h3.638Z" transform="translate(376.359 7014.026)" fill="#1a1a1a"/>
    <path id="Tracé_223" data-name="Tracé 223" d="M65.344,34.977A7.422,7.422,0,1,1,57.925,42.4a7.426,7.426,0,0,1,7.419-7.424" transform="translate(361.437 6998.574)" fill="#d9000d"/>
    <path id="Tracé_224" data-name="Tracé 224" d="M75.118,24.663a.488.488,0,1,1,.976,0V47.245a.488.488,0,1,1-.976,0Z" transform="translate(351.178 7005.021)" fill="#1a1a1a"/>
    <path id="Tracé_225" data-name="Tracé 225" d="M47.6,53.148a.489.489,0,0,1,0-.978H70.188a.489.489,0,1,1,0,.978Z" transform="translate(367.887 6988.315)" fill="#1a1a1a"/>
  </g>
</svg>
